<svg xmlns="http://www.w3.org/2000/svg" width="12.5mm" height="25.0mm" viewBox="0 0 12.5 25.0"><rect width="12.5" height="25.0" fill="#fff"/><g fill="#000"><rect x="1.7857" y="4.5197" width="0.8929" height="0.8929"/><rect x="3.5714" y="4.5197" width="0.8929" height="0.8929"/><rect x="5.3571" y="4.5197" width="0.8929" height="0.8929"/><rect x="7.1429" y="4.5197" width="0.8929" height="0.8929"/><rect x="8.9286" y="4.5197" width="0.8929" height="0.8929"/><rect x="1.7857" y="5.4126" width="0.8929" height="0.8929"/><rect x="3.5714" y="5.4126" width="0.8929" height="0.8929"/><rect x="5.3571" y="5.4126" width="0.8929" height="0.8929"/><rect x="6.2500" y="5.4126" width="0.8929" height="0.8929"/><rect x="8.0357" y="5.4126" width="0.8929" height="0.8929"/><rect x="9.8214" y="5.4126" width="0.8929" height="0.8929"/><rect x="1.7857" y="6.3054" width="0.8929" height="0.8929"/><rect x="3.5714" y="6.3054" width="0.8929" height="0.8929"/><rect x="6.2500" y="6.3054" width="0.8929" height="0.8929"/><rect x="7.1429" y="6.3054" width="0.8929" height="0.8929"/><rect x="8.0357" y="6.3054" width="0.8929" height="0.8929"/><rect x="1.7857" y="7.1983" width="0.8929" height="0.8929"/><rect x="3.5714" y="7.1983" width="0.8929" height="0.8929"/><rect x="4.4643" y="7.1983" width="0.8929" height="0.8929"/><rect x="5.3571" y="7.1983" width="0.8929" height="0.8929"/><rect x="6.2500" y="7.1983" width="0.8929" height="0.8929"/><rect x="8.9286" y="7.1983" width="0.8929" height="0.8929"/><rect x="9.8214" y="7.1983" width="0.8929" height="0.8929"/><rect x="1.7857" y="8.0911" width="0.8929" height="0.8929"/><rect x="5.3571" y="8.0911" width="0.8929" height="0.8929"/><rect x="6.2500" y="8.0911" width="0.8929" height="0.8929"/><rect x="8.9286" y="8.0911" width="0.8929" height="0.8929"/><rect x="1.7857" y="8.9840" width="0.8929" height="0.8929"/><rect x="2.6786" y="8.9840" width="0.8929" height="0.8929"/><rect x="3.5714" y="8.9840" width="0.8929" height="0.8929"/><rect x="5.3571" y="8.9840" width="0.8929" height="0.8929"/><rect x="6.2500" y="8.9840" width="0.8929" height="0.8929"/><rect x="7.1429" y="8.9840" width="0.8929" height="0.8929"/><rect x="9.8214" y="8.9840" width="0.8929" height="0.8929"/><rect x="1.7857" y="9.8769" width="0.8929" height="0.8929"/><rect x="2.6786" y="9.8769" width="0.8929" height="0.8929"/><rect x="3.5714" y="9.8769" width="0.8929" height="0.8929"/><rect x="6.2500" y="9.8769" width="0.8929" height="0.8929"/><rect x="7.1429" y="9.8769" width="0.8929" height="0.8929"/><rect x="8.9286" y="9.8769" width="0.8929" height="0.8929"/><rect x="1.7857" y="10.7697" width="0.8929" height="0.8929"/><rect x="2.6786" y="10.7697" width="0.8929" height="0.8929"/><rect x="3.5714" y="10.7697" width="0.8929" height="0.8929"/><rect x="4.4643" y="10.7697" width="0.8929" height="0.8929"/><rect x="6.2500" y="10.7697" width="0.8929" height="0.8929"/><rect x="8.9286" y="10.7697" width="0.8929" height="0.8929"/><rect x="9.8214" y="10.7697" width="0.8929" height="0.8929"/><rect x="1.7857" y="11.6626" width="0.8929" height="0.8929"/><rect x="3.5714" y="11.6626" width="0.8929" height="0.8929"/><rect x="7.1429" y="11.6626" width="0.8929" height="0.8929"/><rect x="8.0357" y="11.6626" width="0.8929" height="0.8929"/><rect x="8.9286" y="11.6626" width="0.8929" height="0.8929"/><rect x="1.7857" y="12.5554" width="0.8929" height="0.8929"/><rect x="2.6786" y="12.5554" width="0.8929" height="0.8929"/><rect x="3.5714" y="12.5554" width="0.8929" height="0.8929"/><rect x="4.4643" y="12.5554" width="0.8929" height="0.8929"/><rect x="5.3571" y="12.5554" width="0.8929" height="0.8929"/><rect x="6.2500" y="12.5554" width="0.8929" height="0.8929"/><rect x="7.1429" y="12.5554" width="0.8929" height="0.8929"/><rect x="8.0357" y="12.5554" width="0.8929" height="0.8929"/><rect x="8.9286" y="12.5554" width="0.8929" height="0.8929"/><rect x="9.8214" y="12.5554" width="0.8929" height="0.8929"/></g><text x="6.25" y="18.464285714285715" textLength="10.50" lengthAdjust="spacingAndGlyphs" text-anchor="middle" dominant-baseline="central" font-family="Bahnschrift, 'Arial Narrow', sans-serif" font-weight="700" font-size="5.6" fill="#000">PR01</text></svg>